<?xml version="1.0" encoding="utf-8"?>
<!-- Generator: Adobe Illustrator 21.1.0, SVG Export Plug-In . SVG Version: 6.00 Build 0)  -->
<svg version="1.1" id="Layer_1" xmlns="http://www.w3.org/2000/svg" xmlns:xlink="http://www.w3.org/1999/xlink" x="0px" y="0px"
	 viewBox="0 0 25 25" style="enable-background:new 0 0 25 25;" xml:space="preserve">
<style type="text/css">
	.st0{fill:#0A0A08;}
</style>
<g>
	<path class="st0" d="M12.5,2.3c3.3,0,3.7,0,5.1,0.1c1.2,0.1,1.9,0.3,2.3,0.4c0.6,0.2,1,0.5,1.4,0.9s0.7,0.9,0.9,1.4
		c0.2,0.4,0.4,1.1,0.4,2.3c0.1,1.3,0.1,1.7,0.1,5.1s0,3.7-0.1,5.1c-0.1,1.2-0.3,1.9-0.4,2.3c-0.2,0.6-0.5,1-0.9,1.4
		c-0.4,0.4-0.9,0.7-1.4,0.9c-0.4,0.2-1.1,0.4-2.3,0.4c-1.3,0.1-1.7,0.1-5.1,0.1s-3.7,0-5.1-0.1c-1.2-0.1-1.9-0.3-2.3-0.4
		c-0.6-0.2-1-0.5-1.4-0.9c-0.4-0.4-0.7-0.9-0.9-1.4c-0.2-0.4-0.4-1.1-0.4-2.3c-0.1-1.3-0.1-1.7-0.1-5.1s0-3.7,0.1-5.1
		c0.1-1.2,0.3-1.9,0.4-2.3c0.2-0.6,0.5-1,0.9-1.4S4.5,3,5.1,2.8c0.4-0.2,1.1-0.4,2.3-0.4C8.8,2.3,9.2,2.3,12.5,2.3 M12.5,0
		C9.1,0,8.7,0,7.3,0.1C6,0.1,5.1,0.3,4.3,0.7C3.5,1,2.8,1.4,2.1,2.1S1,3.5,0.7,4.3C0.3,5.1,0.1,6,0.1,7.3C0,8.7,0,9.1,0,12.5
		s0,3.8,0.1,5.2c0.1,1.3,0.3,2.2,0.6,3c0.3,0.8,0.7,1.5,1.4,2.2c0.7,0.7,1.4,1.1,2.2,1.4c0.8,0.3,1.7,0.5,3,0.6
		C8.7,25,9.1,25,12.5,25s3.8,0,5.2-0.1c1.3-0.1,2.2-0.3,3-0.6c0.8-0.3,1.5-0.7,2.2-1.4c0.7-0.7,1.1-1.4,1.4-2.2
		c0.3-0.8,0.5-1.7,0.6-3c0.1-1.3,0.1-1.8,0.1-5.2s0-3.8-0.1-5.2c-0.1-1.3-0.3-2.2-0.6-3c-0.3-0.8-0.7-1.5-1.4-2.2
		c-0.7-0.7-1.4-1.1-2.2-1.4c-0.8-0.3-1.7-0.5-3-0.6C16.3,0,15.9,0,12.5,0z M12.5,6.1C9,6.1,6.1,9,6.1,12.5s2.9,6.4,6.4,6.4
		s6.4-2.9,6.4-6.4S16,6.1,12.5,6.1z M12.5,16.7c-2.3,0-4.2-1.9-4.2-4.2s1.9-4.2,4.2-4.2s4.2,1.9,4.2,4.2S14.8,16.7,12.5,16.7z
		 M20.7,5.8c0,0.8-0.7,1.5-1.5,1.5s-1.5-0.7-1.5-1.5s0.7-1.5,1.5-1.5S20.7,5,20.7,5.8z"/>
</g>
</svg>
